<svg width="200" height="200" viewBox="0 0 200 200" xmlns="http://www.w3.org/2000/svg">
    <defs/>
    <path fill="#000000" stroke="none" d="M 0 0 L 200 0 L 200 200 L 0 200 Z"/>
    <path fill="none" stroke="#00ffff" d="M 100 100 L 100 95"/>
    <path fill="none" stroke="#00ff00" d="M 100 95 L 110 95"/>
    <path fill="none" stroke="#ff0000" d="M 110 95 L 110 110"/>
    <path fill="none" stroke="#ff00ff" d="M 110 110 L 90 110"/>
    <path fill="none" stroke="#ffff00" d="M 90 110 L 90 85"/>
    <path fill="none" stroke="#ffffff" d="M 90 85 L 120 85"/>
    <path fill="none" stroke="#a52a2a" d="M 120 85 L 120 120"/>
    <path fill="none" stroke="#d2b48c" d="M 120 120 L 80 120"/>
    <path fill="none" stroke="#228b22" d="M 80 120 L 80 75"/>
    <path fill="none" stroke="#d2b48c" d="M 80 75 L 130 75"/>
    <path fill="none" stroke="#a52a2a" d="M 130 75 L 130 130"/>
    <path fill="none" stroke="#ffffff" d="M 130 130 L 70 130"/>
    <path fill="none" stroke="#ffff00" d="M 70 130 L 70 65"/>
    <path fill="none" stroke="#ff00ff" d="M 70 65 L 140 65"/>
    <path fill="none" stroke="#ff0000" d="M 140 65 L 140 140"/>
    <path fill="none" stroke="#00ff00" d="M 140 140 L 60 140"/>
    <path fill="none" stroke="#00ffff" d="M 60 140 L 60 55"/>
    <path fill="none" stroke="#00ff00" d="M 60 55 L 150 55"/>
    <path fill="none" stroke="#ff0000" d="M 150 55 L 150 150"/>
    <path fill="none" stroke="#ff00ff" d="M 150 150 L 50 150"/>
    <path fill="none" stroke="#ffff00" d="M 50 150 L 50 45"/>
    <path fill="none" stroke="#ffffff" d="M 50 45 L 160 45"/>
    <path fill="none" stroke="#a52a2a" d="M 160 45 L 160 160"/>
    <path fill="none" stroke="#d2b48c" d="M 160 160 L 40 160"/>
    <path fill="none" stroke="#228b22" d="M 40 160 L 40 35"/>
    <path fill="none" stroke="#d2b48c" d="M 40 35 L 170 35"/>
    <path fill="none" stroke="#a52a2a" d="M 170 35 L 170 170"/>
    <path fill="none" stroke="#ffffff" d="M 170 170 L 30 170"/>
    <path fill="none" stroke="#ffff00" d="M 30 170 L 30 25"/>
    <path fill="none" stroke="#ff00ff" d="M 30 25 L 180 25"/>
    <path fill="none" stroke="#ff0000" d="M 180 25 L 180 180"/>
    <path fill="none" stroke="#00ff00" d="M 180 180 L 20 180"/>
    <path fill="none" stroke="#00ffff" d="M 20 180 L 20 15"/>
    <path fill="none" stroke="#00ff00" d="M 20 15 L 190 15"/>
    <path fill="none" stroke="#ff0000" d="M 190 15 L 190 190"/>
    <path fill="none" stroke="#ff00ff" d="M 190 190 L 10 190"/>
</svg>
